<svg width="257" height="76" viewBox="0 0 257 76" fill="none" xmlns="http://www.w3.org/2000/svg">
<path fill-rule="evenodd" clip-rule="evenodd" d="M48.7691 40.2895C48.6536 40.2915 48.538 40.2924 48.4221 40.2924C43.3928 40.2924 38.7971 38.4361 35.2828 35.3712L40.6894 21.0615H56.034L48.7691 40.2895ZM45.5622 48.777C45.2354 48.7617 44.9065 48.754 44.5759 48.754C33.1054 48.754 23.8067 58.0527 23.8067 69.5232C23.8067 71.3855 24.0518 73.1905 24.5115 74.9078H35.6884L35.6883 74.9077H35.6892L45.5622 48.777ZM14.5815 59.657C19.286 55.636 22.2682 49.6587 22.2682 42.9847C22.2682 41.1544 22.0439 39.3764 21.6213 37.6767L19.8174 32.9025C16.1676 25.8678 8.81764 21.0617 0.345148 21.0617C0.229889 21.0617 0.114837 21.0626 0 21.0643L14.5815 59.657Z" fill="url(#paint0_linear_124_535)"/>
<path d="M94.5544 74.8077L92.2948 67.4038H91.9102C89.3461 70.641 86.7659 72.8526 84.1698 74.0385C81.5736 75.1923 78.2403 75.7692 74.1698 75.7692C68.9454 75.7692 64.8589 74.359 61.9102 71.5385C58.9935 68.7179 57.5352 64.7276 57.5352 59.5673C57.5352 54.0865 59.5704 49.9519 63.6409 47.1635C67.7114 44.375 73.9134 42.8526 82.2467 42.5962L91.4294 42.3077V39.4712C91.4294 36.0737 90.6281 33.5417 89.0255 31.875C87.455 30.1763 85.0031 29.3269 81.6698 29.3269C78.9454 29.3269 76.3332 29.7276 73.8332 30.5288C71.3332 31.3301 68.9294 32.2756 66.6217 33.3654L62.9678 25.2885C65.8525 23.7821 69.0095 22.6442 72.439 21.875C75.8685 21.0737 79.1057 20.6731 82.1505 20.6731C88.9134 20.6731 94.0095 22.1474 97.439 25.0962C100.901 28.0449 102.631 32.6763 102.631 38.9904V74.8077H94.5544ZM77.7275 67.1154C81.83 67.1154 85.1153 65.9776 87.5832 63.7019C90.0832 61.3942 91.3332 58.1731 91.3332 54.0385V49.4231L84.5063 49.7115C79.1858 49.9038 75.3076 50.8013 72.8717 52.4038C70.4678 53.9744 69.2659 56.3942 69.2659 59.6635C69.2659 62.0353 69.9711 63.8782 71.3813 65.1923C72.7916 66.4744 74.907 67.1154 77.7275 67.1154Z" fill="#0E0522"/>
<path d="M127.729 74.8077H116.431V0H127.729V74.8077Z" fill="#0E0522"/>
<path d="M179.462 74.8077L177.876 67.8365H177.299C175.728 70.3045 173.485 72.2436 170.568 73.6538C167.683 75.0641 164.382 75.7692 160.664 75.7692C154.222 75.7692 149.414 74.1667 146.241 70.9615C143.068 67.7564 141.481 62.9006 141.481 56.3942V21.6346H152.876V54.4231C152.876 58.4936 153.709 61.5545 155.376 63.6058C157.042 65.625 159.654 66.6346 163.212 66.6346C167.956 66.6346 171.433 65.2244 173.645 62.4038C175.888 59.5513 177.01 54.7917 177.01 48.125V21.6346H188.356V74.8077H179.462Z" fill="#0E0522"/>
<path d="M213.791 74.8077H202.493V21.6346H213.791V74.8077Z" fill="#0E0522"/>
<path d="M247.831 66.6346C250.588 66.6346 253.344 66.2019 256.101 65.3365V73.8462C254.851 74.391 253.232 74.8397 251.245 75.1923C249.29 75.5769 247.254 75.7692 245.139 75.7692C234.434 75.7692 229.081 70.1282 229.081 58.8462V30.1923H221.822V25.1923L229.61 21.0577L233.456 9.80769H240.427V21.6346H255.572V30.1923H240.427V58.6538C240.427 61.3782 241.101 63.3974 242.447 64.7115C243.825 65.9936 245.62 66.6346 247.831 66.6346Z" fill="#0E0522"/>
<path d="M214.626 7.50038C214.626 11.1115 211.698 14.0388 208.087 14.0388C204.476 14.0388 201.549 11.1115 201.549 7.50038C201.549 3.88928 204.476 0.961914 208.087 0.961914C211.698 0.961914 214.626 3.88928 214.626 7.50038Z" fill="#0E0522"/>
<defs>
<linearGradient id="paint0_linear_124_535" x1="21.791" y1="-6.47352" x2="91.351" y2="33.2646" gradientUnits="userSpaceOnUse">
<stop stop-color="#986FF5"/>
<stop offset="1" stop-color="#5E7EEC"/>
</linearGradient>
</defs>
</svg>
