<svg width="314" height="52" viewBox="0 0 314 52" fill="none" xmlns="http://www.w3.org/2000/svg">
<path d="M0.0592932 40V3.28H28.2113C29.5033 3.28 30.6763 3.603 31.7303 4.249C32.8183 4.895 33.6853 5.762 34.3313 6.85C34.9773 7.904 35.3003 9.077 35.3003 10.369V17.56C35.3003 18.002 35.2663 18.427 35.1983 18.835C35.1303 19.243 35.0113 19.634 34.8413 20.008C35.4193 20.79 35.8783 21.606 36.2183 22.456C36.5923 23.306 36.7793 24.156 36.7793 25.006V32.911C36.7793 34.203 36.4563 35.393 35.8103 36.481C35.1643 37.535 34.2973 38.385 33.2093 39.031C32.1213 39.677 30.9313 40 29.6393 40H0.0592932ZM7.40329 33.217H29.3333C29.5033 33.217 29.6563 33.166 29.7923 33.064C29.9283 32.928 29.9963 32.775 29.9963 32.605V25.312C29.9963 25.142 29.9283 25.006 29.7923 24.904C29.6563 24.768 29.5033 24.7 29.3333 24.7H7.40329C7.23329 24.7 7.08029 24.768 6.94429 24.904C6.84229 25.006 6.79129 25.142 6.79129 25.312V32.605C6.79129 32.775 6.84229 32.928 6.94429 33.064C7.08029 33.166 7.23329 33.217 7.40329 33.217ZM7.40329 17.917H27.9053C28.0753 17.917 28.2113 17.866 28.3133 17.764C28.4153 17.628 28.4663 17.475 28.4663 17.305V10.675C28.4663 10.505 28.4153 10.369 28.3133 10.267C28.2113 10.131 28.0753 10.063 27.9053 10.063H7.40329C7.23329 10.063 7.08029 10.131 6.94429 10.267C6.84229 10.369 6.79129 10.505 6.79129 10.675V17.305C6.79129 17.475 6.84229 17.628 6.94429 17.764C7.08029 17.866 7.23329 17.917 7.40329 17.917ZM49.1739 40C47.8819 40 46.7089 39.677 45.6549 39.031C44.6009 38.385 43.7509 37.535 43.1049 36.481C42.4589 35.427 42.1359 34.254 42.1359 32.962V0.678999H48.8679V32.707C48.8679 32.877 48.9189 33.03 49.0209 33.166C49.1569 33.268 49.3099 33.319 49.4799 33.319H55.1409V40H49.1739ZM65.9569 40C64.6649 40 63.4919 39.677 62.4379 39.031C61.3839 38.385 60.5339 37.535 59.8879 36.481C59.2419 35.427 58.9189 34.254 58.9189 32.962V17.458C58.9189 16.166 59.2419 14.993 59.8879 13.939C60.5339 12.885 61.3839 12.035 62.4379 11.389C63.4919 10.743 64.6649 10.42 65.9569 10.42H81.9199C83.2119 10.42 84.3849 10.743 85.4389 11.389C86.5269 12.035 87.3769 12.885 87.9889 13.939C88.6349 14.993 88.9579 16.166 88.9579 17.458V32.962C88.9579 34.254 88.6349 35.427 87.9889 36.481C87.3769 37.535 86.5439 38.385 85.4899 39.031C84.4359 39.677 83.2459 40 81.9199 40H65.9569ZM66.2119 33.319H81.6649C81.8349 33.319 81.9709 33.268 82.0729 33.166C82.2089 33.03 82.2769 32.877 82.2769 32.707V17.713C82.2769 17.543 82.2089 17.407 82.0729 17.305C81.9709 17.169 81.8349 17.101 81.6649 17.101H66.2119C66.0419 17.101 65.8889 17.169 65.7529 17.305C65.6509 17.407 65.5999 17.543 65.5999 17.713V32.707C65.5999 32.877 65.6509 33.03 65.7529 33.166C65.8889 33.268 66.0419 33.319 66.2119 33.319ZM101.268 40C99.9764 40 98.8034 39.677 97.7494 39.031C96.6954 38.385 95.8454 37.535 95.1994 36.481C94.5534 35.427 94.2304 34.254 94.2304 32.962V17.458C94.2304 16.166 94.5534 14.993 95.1994 13.939C95.8454 12.885 96.6954 12.035 97.7494 11.389C98.8034 10.743 99.9764 10.42 101.268 10.42H124.218V17.101H101.523C101.353 17.101 101.2 17.169 101.064 17.305C100.962 17.407 100.911 17.543 100.911 17.713V32.707C100.911 32.877 100.962 33.03 101.064 33.166C101.2 33.268 101.353 33.319 101.523 33.319H124.269V40H101.268ZM128.549 40V0.729998H135.23V21.844H140.483L151.04 10.42H158.18V12.256L146.399 25.21L158.129 38.164V40H151.04L140.483 28.576H135.23V40H128.549ZM190.896 40L179.829 26.791H188.652L198.24 38.113V40H190.896ZM161.622 40V3.331H191.202C192.494 3.331 193.684 3.654 194.772 4.3C195.86 4.946 196.727 5.813 197.373 6.901C198.019 7.955 198.342 9.128 198.342 10.42V20.314C198.342 21.606 198.019 22.796 197.373 23.884C196.727 24.972 195.86 25.839 194.772 26.485C193.684 27.097 192.494 27.403 191.202 27.403L168.354 27.454V40H161.622ZM168.966 20.62H190.896C191.066 20.62 191.219 20.569 191.355 20.467C191.491 20.365 191.559 20.229 191.559 20.059V10.675C191.559 10.505 191.491 10.369 191.355 10.267C191.219 10.131 191.066 10.063 190.896 10.063H168.966C168.796 10.063 168.643 10.131 168.507 10.267C168.405 10.369 168.354 10.505 168.354 10.675V20.059C168.354 20.229 168.405 20.365 168.507 20.467C168.643 20.569 168.796 20.62 168.966 20.62ZM203.503 40V10.42H210.184V40H203.503ZM203.503 7.462V0.729998H210.184V7.462H203.503ZM221.065 40C219.739 40 218.549 39.677 217.495 39.031C216.441 38.385 215.591 37.535 214.945 36.481C214.333 35.427 214.027 34.254 214.027 32.962V17.458C214.027 16.166 214.333 14.993 214.945 13.939C215.591 12.885 216.441 12.035 217.495 11.389C218.549 10.743 219.739 10.42 221.065 10.42H237.436V0.729998H244.117V40H221.065ZM221.371 33.319H236.824C236.994 33.319 237.13 33.268 237.232 33.166C237.368 33.03 237.436 32.877 237.436 32.707V17.713C237.436 17.543 237.368 17.407 237.232 17.305C237.13 17.169 236.994 17.101 236.824 17.101H221.371C221.201 17.101 221.048 17.169 220.912 17.305C220.81 17.407 220.759 17.543 220.759 17.713V32.707C220.759 32.877 220.81 33.03 220.912 33.166C221.048 33.268 221.201 33.319 221.371 33.319ZM253.909 51.679V44.947H271.708C271.878 44.947 272.014 44.879 272.116 44.743C272.252 44.641 272.32 44.505 272.32 44.335V40H256C254.742 40 253.569 39.677 252.481 39.031C251.427 38.385 250.577 37.535 249.931 36.481C249.285 35.427 248.962 34.254 248.962 32.962V17.458C248.962 16.166 249.285 14.993 249.931 13.939C250.577 12.885 251.427 12.035 252.481 11.389C253.569 10.743 254.742 10.42 256 10.42H272.014C273.306 10.42 274.479 10.743 275.533 11.389C276.587 12.035 277.42 12.885 278.032 13.939C278.678 14.993 279.001 16.166 279.001 17.458V44.641C279.001 45.967 278.695 47.157 278.083 48.211C277.471 49.265 276.621 50.098 275.533 50.71C274.479 51.356 273.306 51.679 272.014 51.679H253.909ZM256.255 33.319H271.708C271.878 33.319 272.014 33.268 272.116 33.166C272.252 33.03 272.32 32.877 272.32 32.707V17.713C272.32 17.543 272.252 17.407 272.116 17.305C272.014 17.169 271.878 17.101 271.708 17.101H256.255C256.085 17.101 255.932 17.169 255.796 17.305C255.694 17.407 255.643 17.543 255.643 17.713V32.707C255.643 32.877 255.694 33.03 255.796 33.166C255.932 33.268 256.085 33.319 256.255 33.319ZM290.277 40C288.985 40 287.812 39.677 286.758 39.031C285.704 38.385 284.854 37.535 284.208 36.481C283.562 35.427 283.239 34.254 283.239 32.962V17.458C283.239 16.166 283.562 14.993 284.208 13.939C284.854 12.885 285.704 12.035 286.758 11.389C287.812 10.743 288.985 10.42 290.277 10.42H306.24C307.532 10.42 308.705 10.743 309.759 11.389C310.847 12.035 311.697 12.885 312.309 13.939C312.955 14.993 313.278 16.166 313.278 17.458V28.576H289.92V32.707C289.92 32.877 289.971 33.03 290.073 33.166C290.209 33.268 290.362 33.319 290.532 33.319H313.278V40H290.277ZM289.92 22.558H306.597V17.713C306.597 17.543 306.529 17.407 306.393 17.305C306.291 17.169 306.155 17.101 305.985 17.101H290.532C290.362 17.101 290.209 17.169 290.073 17.305C289.971 17.407 289.92 17.543 289.92 17.713V22.558Z" fill="black"/>
</svg>
